<?xml version="1.0" encoding="UTF-8" standalone="no"?>
<!-- Created with Inkscape (http://www.inkscape.org/) -->

<svg
   width="120"
   height="120"
   viewBox="0 0 120 120"
   version="1.1"
   id="svg5"
   xml:space="preserve"
   inkscape:version="1.2.2 (b0a8486541, 2022-12-01)"
   sodipodi:docname="logo.svg"
   inkscape:export-filename="logo.png"
   inkscape:export-xdpi="96"
   inkscape:export-ydpi="96"
   xmlns:inkscape="http://www.inkscape.org/namespaces/inkscape"
   xmlns:sodipodi="http://sodipodi.sourceforge.net/DTD/sodipodi-0.dtd"
   xmlns="http://www.w3.org/2000/svg"
   xmlns:svg="http://www.w3.org/2000/svg"><sodipodi:namedview
     id="namedview7"
     pagecolor="#505050"
     bordercolor="#ffffff"
     borderopacity="1"
     inkscape:showpageshadow="0"
     inkscape:pageopacity="0"
     inkscape:pagecheckerboard="1"
     inkscape:deskcolor="#505050"
     inkscape:document-units="px"
     showgrid="false"
     inkscape:zoom="5.1659481"
     inkscape:cx="-34.26283"
     inkscape:cy="65.138092"
     inkscape:window-width="2520"
     inkscape:window-height="1555"
     inkscape:window-x="0"
     inkscape:window-y="30"
     inkscape:window-maximized="1"
     inkscape:current-layer="layer1" /><defs
     id="defs2" /><g
     inkscape:label="Layer 1"
     inkscape:groupmode="layer"
     id="layer1"><path
       style="display:inline;fill:#000000;fill-opacity:1;stroke:none;stroke-width:0.0641526"
       d="M 58.142024,0.07753121 C 54.408191,1.0348588 51.137596,3.6968397 50.416716,7.7602865 c -0.104704,0.5897875 -0.01651,1.2706452 -0.01651,1.8697774 0,0.7184031 -0.121205,1.5674221 0.02917,2.2699371 0.827487,3.875742 3.854406,6.816421 7.585703,7.733014 1.017221,0.249954 2.311118,0.454377 3.363242,0.205598 4.112674,-0.972438 7.60537,-3.920312 8.230426,-8.392604 0.813524,-5.8201792 -3.737641,-11.41453202 -9.499575,-11.41453202 -0.623152,0 -1.361163,-0.10941052 -1.967179,0.04603818 m 4.44202,10.91449384 c 0.297616,-0.741684 0.503219,-1.4684559 0.57556,-2.2699366 0.02284,-0.2459955 0.115492,-0.5386842 -0.01587,-0.7689233 C 62.870837,7.474063 62.191207,7.920095 62.139807,7.2304032 H 63.7897 c 0.173873,6.21e-5 0.461969,-0.046316 0.592692,0.103701 0.173873,0.2000183 -0.369957,0.5757213 -0.434684,0.8043387 -0.229081,0.8105578 -0.250022,1.6585455 -0.529869,2.4644311 -0.09836,0.282964 -0.401051,0.678458 -0.229082,0.972829 0.331883,0.56872 1.135889,1.302948 1.806634,1.355866 0.304595,0.02398 1.327529,-0.487456 1.392255,-0.05772 0.08186,0.540766 -1.358622,0.796355 -1.709543,0.831056 -0.598403,0.05924 -1.201882,-0.08632 -1.71335,-0.408391 -0.229716,-0.144434 -0.61744,-0.660613 -0.890942,-0.635064 -0.42453,0.03972 -0.963918,0.583114 -1.393524,0.739031 -1.321822,0.479931 -3.137335,0.502752 -4.378566,-0.233551 C 53.916358,11.752049 54.068022,7.8438039 56.936298,7.1655516 56.706584,6.8096864 56.498441,6.4267817 56.439428,5.9981535 56.042819,3.1211055 60.528623,2.6618637 61.162562,5.1549687 61.225389,5.4039474 61.109263,5.7255649 60.8072,5.562846 60.561621,5.4308017 60.378864,5.1574981 60.172627,4.972397 59.544399,4.4082275 57.751089,3.5830747 57.445859,4.9604405 c -0.156106,0.7052994 0.645999,1.5030818 1.076872,1.9456531 1.340223,1.3766872 2.718519,2.7138068 4.061277,4.0858824 M 61.632147,12.09452 C 61.123853,11.356657 60.371249,10.755387 59.728424,10.143088 59.001201,9.4508875 58.280326,8.3054777 57.425553,7.8003197 c -0.213217,-0.126141 -0.54256,0.042538 -0.743086,0.1370399 -0.727221,0.3426927 -1.023565,1.0343101 -0.941072,1.8223701 0.280479,2.6638643 3.976876,4.0021523 5.890752,2.3347903 m -2.284472,11.025402 0.380747,71.794804 H 6.5511477 v 0.713406 H 110.93861 V 94.914713 H 60.299576 L 60.045746,23.119909 H 59.347715 M 7.5933707,34.990238 c -0.3011713,0.177508 -0.4864011,0.542258 -0.7094574,0.803041 -0.4219935,0.493222 -0.8579428,0.940596 -1.2491551,1.465083 -1.4148489,1.896948 -2.6673073,3.840141 -3.6102249,6.031536 -3.4450384,8.006648 -3.0809199,17.381221 1.1325918,25.034145 1.0974977,1.993652 2.5022538,4.307691 4.2298141,5.792872 0.558998,0.479932 1.7705284,0.238671 2.4639878,0.238671 h 6.409205 22.146633 5.838086 c 0.596116,0 1.772112,0.228288 2.281736,-0.112853 0.667445,-0.447498 0.446931,-1.594791 0.446931,-2.286794 V 65.600122 43.354757 37.84206 c 0,-0.824061 0.163085,-1.769122 -0.414313,-2.437012 -0.622963,-0.720671 -1.634537,-0.481485 -2.50473,-0.481485 H 37.645277 15.815928 9.914389 c -0.5925083,0 -1.8050464,-0.237434 -2.3210183,0.06665 m 65.4877983,0 c -0.926478,0.54537 -0.788142,1.540705 -0.788142,2.462685 v 6.226111 22.245364 5.577551 c 0,0.834044 -0.175142,1.767309 0.376302,2.453477 0.522255,0.649852 1.675276,0.400159 2.415825,0.400159 h 6.472658 22.210098 5.90153 c 0.59968,0 1.76729,0.226989 2.28194,-0.112854 0.68407,-0.452039 1.25328,-1.375579 1.74761,-2.027376 1.43223,-1.887931 2.61001,-3.859532 3.57901,-6.031536 3.63674,-8.15426 3.0377,-18.024713 -1.52869,-25.6827 -0.91824,-1.540442 -1.93926,-3.042226 -3.15766,-4.351076 -0.32426,-0.348272 -0.57491,-0.784425 -0.95503,-1.076144 -0.51526,-0.395226 -1.78504,-0.150338 -2.41138,-0.150338 h -6.40919 -21.575526 -5.838082 c -0.592694,0 -1.804729,-0.237302 -2.321273,0.06665 m 12.601373,22.956951 c 0.05901,1.490375 0.108513,3.240819 1.153022,4.409516 0.69486,0.776316 1.727946,1.132367 2.717881,1.30294 2.18484,0.376165 4.889396,0.224405 6.366677,-1.691427 1.752063,-2.272527 0.509576,-4.80902 -1.797739,-5.949823 -3.209679,-1.587011 -7.185921,-1.880154 -8.482357,-5.853837 -0.189102,-0.580457 -0.330613,-1.20125 -0.338228,-1.815949 -0.0089,-0.771517 0.05838,-1.524425 0.263983,-2.269935 0.968361,-3.520928 4.620335,-5.050349 7.922027,-4.567174 0.724044,0.10597 1.444292,0.226736 2.157554,0.393803 0.230989,0.05415 0.654875,0.07581 0.825583,0.256042 0.354728,0.375711 0.484179,1.228557 0.672007,1.712248 0.144689,0.372858 0.486083,0.953826 0.426432,1.361959 -0.168794,1.152351 -1.247566,0.04248 -1.606743,-0.324277 -2.160085,-2.20748 -6.131886,-2.804854 -8.036244,0.129714 -0.329977,0.508464 -0.56477,1.136525 -0.591424,1.751092 -0.104703,2.419296 1.659412,3.441482 3.677994,4.12914 2.464054,0.839361 5.011869,1.614447 6.683963,3.783206 2.30796,2.993723 1.105433,7.955795 -2.051568,9.801583 -2.160729,1.263374 -5.221915,0.899538 -7.614894,0.899538 -0.89475,0 -2.052213,0.201701 -2.919042,-0.02075 -0.748162,-0.191972 -0.50766,-1.406062 -0.50766,-1.989762 v -3.567041 c 0,-0.423505 -0.126279,-1.10708 0.06536,-1.491673 0.209408,-0.41961 0.619978,-0.389128 1.013413,-0.389128 M 29.268896,53.342428 c 1.471385,2.068237 2.757098,4.278503 4.224745,6.355819 0.818471,1.158314 1.728133,2.470987 2.882485,3.305029 0.935619,0.67514 2.185031,1.009793 3.299787,0.649201 0.54199,-0.175109 1.612009,-1.040283 2.058687,-0.304817 0.522446,0.86127 -1.473673,1.618787 -2.058687,1.819835 -2.040409,0.702378 -4.63163,0.737401 -6.409199,-0.647262 -2.223864,-1.732277 -3.810175,-4.670221 -5.330615,-7.027063 -0.457652,-0.709521 -0.899763,-1.428767 -1.354241,-2.140226 -0.164485,-0.257476 -0.35162,-0.689413 -0.624421,-0.840525 -0.22699,-0.125169 -0.624039,-0.0031 -0.876731,-0.0026 h -2.157551 c 0,2.914598 -0.20287,5.914152 0.0057,8.820315 0.02243,0.311957 0.100774,0.662826 0.378524,0.837288 0.321224,0.201702 1.429442,0.188728 1.073258,0.912512 -0.263031,0.534409 -1.291933,0.325575 -1.774778,0.325575 h -3.04596 c -0.381186,0 -0.985741,0.116089 -1.33165,-0.06679 -0.410004,-0.215968 -0.380178,-0.642073 -0.318239,-1.035739 0.396924,0 0.929077,0.05709 1.254678,-0.227643 0.26151,-0.228939 0.252627,-0.620022 0.295204,-0.939757 0.123613,-0.928725 0.03655,-1.91712 0.03655,-2.853629 V 47.375808 c 0,-1.04145 0.100897,-2.145678 -0.03655,-3.177914 -0.04536,-0.340356 -0.02692,-0.820548 -0.298438,-1.069465 -0.323635,-0.296708 -0.852295,-0.227635 -1.251444,-0.227635 -0.03113,-0.403664 -0.110862,-0.809528 0.318239,-1.035869 0.373129,-0.196837 1.046413,-0.06665 1.458567,-0.06665 h 3.426701 c 2.659117,0 5.789347,-0.443739 8.05909,1.28148 3.505263,2.664381 1.57476,8.580936 -1.903721,10.262764 m -6.34575,-10.117457 v 9.858005 c 1.800607,0 3.948895,0.206892 5.45734,-1.006423 2.288464,-1.840591 1.676672,-6.294854 -0.571116,-7.915136 -1.399742,-1.008948 -3.252827,-0.936446 -4.886224,-0.936446 m 19.4814,58.110348 c 0.361133,-0.0402 1.594874,-0.59018 1.594874,-1.03315 0,-0.636232 -0.986385,0.34632 -1.087216,0.44945 -0.182758,0.18678 -0.358916,0.36772 -0.507658,0.58369 m 23.288871,0 c 0.377571,-0.0422 1.613722,-0.59927 1.55661,-1.08762 -0.06409,-0.55257 -0.949957,0.40275 -1.04895,0.50392 -0.182759,0.18678 -0.359169,0.36773 -0.50766,0.5837 m -46.514288,4.28044 h -0.253827 c 0,0.26267 -0.143224,0.92224 0.03926,1.11293 0.243422,0.25423 0.784205,0.24838 1.103015,0.24904 0.95402,10e-4 2.060527,-0.19392 2.370898,-1.29711 0.05235,-0.18613 0.04496,-0.39173 0.03954,-0.58369 -0.05315,-1.85162 -2.938013,-0.41897 -3.014668,-2.07538 -0.06307,-1.36196 2.369116,-1.52344 2.38105,-0.0649 h 0.253832 c 0,-0.2698 0.149248,-0.85155 -0.03851,-1.05715 -0.187581,-0.20494 -0.595227,-0.22569 -0.849885,-0.26655 -0.943736,-0.15046 -2.072581,0.13749 -2.352555,1.19399 -0.05027,0.19002 -0.06765,0.38783 -0.04779,0.58369 0.116258,1.1434 1.16794,1.05844 2.0196,1.19594 0.47999,0.0772 0.993293,0.31001 1.011573,0.87944 0.04715,1.46962 -2.656136,1.6765 -2.661468,0.1297 m 8.376379,0 h -0.190369 l -0.06346,1.1674 c 0.878309,0.18549 1.898519,0.40404 2.728667,-0.0882 0.740926,-0.43972 1.27251,-1.64343 0.557535,-2.36203 -0.662683,-0.66541 -2.56311,0.0188 -2.702141,-1.24652 -0.153315,-1.39569 2.333836,-1.62787 2.334979,-0.12971 h 0.253827 l 0.126915,-1.03769 c -0.758505,-0.34373 -1.766082,-0.50003 -2.538294,-0.10507 -0.724559,0.37033 -1.162541,1.53124 -0.607985,2.2427 0.633495,0.81199 2.752847,0.0869 2.811291,1.42941 0.06486,1.48909 -2.645729,1.65511 -2.710968,0.12971 m 5.964998,-3.99314 c -2.128234,0.31131 -3.273196,3.12862 -1.575393,4.75001 0.647265,0.61871 1.620132,0.71016 2.463796,0.58564 1.8093,-0.26656 2.918599,-2.67204 1.896869,-4.261 -0.594089,-0.92418 -1.759924,-1.22511 -2.785272,-1.07465 m 47.339225,4.51199 c -0.762124,0.36384 -1.565495,0.6719 -2.411381,0.3606 -1.463329,-0.53895 -2.199435,-2.61821 -1.07243,-3.86214 0.74372,-0.82042 3.03834,-1.18555 3.039609,0.38848 h 0.253831 l 0.190371,-1.16739 c -0.801467,-0.0668 -1.529324,-0.34179 -2.347924,-0.2218 -0.552079,0.0811 -1.07243,0.22375 -1.522979,0.58045 -1.844072,1.45924 -0.767833,4.65596 1.522979,4.76233 0.699301,0.0324 2.242584,0.12517 2.347924,-0.84053 m 8.249464,-0.51884 h -0.253824 l -0.06346,1.16739 c 0.892846,0.18808 1.883416,0.39562 2.728669,-0.0876 0.719607,-0.41118 1.278032,-1.58117 0.620613,-2.30495 -0.658053,-0.72379 -2.70392,-0.0311 -2.768646,-1.36911 -0.06663,-1.36325 2.337136,-1.52539 2.338405,-0.0649 h 0.253829 c 0.03236,-0.26201 0.190373,-0.77113 0.05583,-1.01045 -0.141511,-0.25163 -0.632671,-0.27369 -0.880789,-0.31324 -0.902365,-0.14399 -2.007793,0.0707 -2.340945,1.06427 -0.06409,0.19002 -0.07171,0.38459 -0.07044,0.58369 0.0095,1.25106 1.131446,1.18037 2.030639,1.32565 0.500044,0.0804 1.021029,0.34632 1.006434,0.9443 -0.03427,1.4346 -2.655058,1.57532 -2.656328,0.0649 m 13.326056,0 h -0.25382 c 0,0.26266 -0.14342,0.92224 0.0394,1.11291 0.24303,0.25424 0.78433,0.2484 1.10288,0.24905 0.95377,0.001 2.06048,-0.19392 2.37077,-1.29711 0.0527,-0.18614 0.045,-0.39173 0.0394,-0.58369 -0.0527,-1.85227 -2.89938,-0.41443 -3.01932,-2.07538 -0.0978,-1.34315 2.37395,-1.53706 2.38601,-0.0649 h 0.25382 c 0,-0.2698 0.14914,-0.85155 -0.0386,-1.05714 -0.17577,-0.19262 -0.547,-0.21598 -0.78624,-0.25618 -0.91822,-0.15306 -2.10423,0.0694 -2.40058,1.11875 -0.0597,0.21013 -0.0857,0.42999 -0.0635,0.64855 0.11675,1.1434 1.16825,1.05844 2.01985,1.19594 0.47974,0.0772 0.9931,0.31001 1.01151,0.87944 0.047,1.46961 -2.65633,1.6765 -2.66141,0.1297 m -89.348041,1.10257 v 0.19457 h 1.713357 c -0.102935,-0.29898 -0.563252,-0.22894 -0.548207,-0.585 0.04646,-1.09928 0.776716,-1.1661 1.626981,-1.1661 0.229524,0 0.597517,-0.0694 0.79842,0.0668 0.3256,0.21987 0.502328,1.05196 0.534182,1.42487 -0.247353,0.003 -0.493,-0.0136 -0.571115,0.25942 h 1.903728 c -0.09868,-0.2899 -0.426375,-0.36254 -0.568394,-0.64985 -0.547763,-1.10837 -0.973498,-2.29522 -1.452727,-3.43603 -0.09462,-0.2257 -0.387344,-1.30489 -0.745439,-1.0967 -0.262012,0.15176 -0.418051,0.82236 -0.533162,1.0967 -0.400735,0.95597 -0.825835,1.90026 -1.232663,2.85363 -0.202811,0.47475 -0.377066,0.94884 -0.924961,1.03768 m 9.708917,-5.05871 v 0.25942 c 0.234413,0.0109 0.501821,0.0357 0.6328,0.26786 0.160293,0.28471 0.128183,0.83663 0.128691,1.15896 0.0012,0.79772 0.03161,1.60323 -0.0026,2.39964 -0.02176,0.50717 -0.07215,0.92095 -0.6321,0.97283 v 0.19457 h 3.870903 l 0.06346,-1.23225 h -0.253827 c -0.119748,0.90928 -0.601641,0.90797 -1.396066,0.90797 -0.323123,0 -0.872414,0.1148 -0.942468,-0.32557 -0.05503,-0.34567 -0.161627,-1.51242 0.09233,-1.76666 0.492494,-0.49225 1.582187,-0.0467 1.611632,0.60057 h 0.25383 v -1.68622 h -0.25383 c -0.02163,0.91576 -1.057835,0.64855 -1.713352,0.64855 v -2.01051 c 0.890433,-6.1e-4 1.95087,-0.35476 2.157553,0.77827 0.354218,-0.12712 0.29571,-0.7666 0.380745,-1.10254 -1.209628,-0.29445 -2.7538,-0.0649 -3.997816,-0.0649 m 14.277918,0 v 0.25942 c 0.231618,0.005 0.481827,0.0155 0.587488,0.26655 0.347176,0.82496 0.186945,2.48656 0.074,3.36534 -0.03584,0.27953 0.03793,0.63883 -0.074,0.89956 -0.103947,0.24124 -0.363168,0.25746 -0.587488,0.26784 v 0.19456 h 2.094092 v -0.19456 c -0.790804,-0.0175 -0.761424,-0.62844 -0.761487,-1.2971 -6.2e-5,-1.12524 0.06041,-2.25177 0.06346,-3.37247 0.509436,-0.0675 0.996405,-0.23218 1.458378,0.10701 1.110252,0.81588 -0.170449,2.1519 -1.204551,1.90349 0.172288,0.74066 1.028138,1.52215 1.469105,2.14024 0.153758,0.21532 0.331055,0.56488 0.580569,0.67449 0.25802,0.1135 0.655831,0.0389 0.932824,0.0389 l -0.563452,-0.71342 -1.403677,-1.94566 c 0.997042,-0.1524 2.084006,-1.65705 0.887447,-2.37565 -0.880406,-0.52857 -2.560251,-0.21013 -3.552659,-0.21855 m 4.949677,0 v 0.25941 c 0.234727,0.003 0.49319,0.003 0.596309,0.26331 0.131864,0.33336 0.09995,0.93133 0.101663,1.29322 0.0042,0.89565 0.137127,1.98133 -0.08358,2.85234 -0.07755,0.30676 -0.342541,0.37551 -0.614395,0.39043 v 0.19456 h 2.030639 v -0.19456 c -0.222929,-0.0107 -0.494335,-0.0253 -0.59631,-0.26786 -0.35682,-0.84831 -0.101725,-2.25956 -0.101725,-3.16948 0,-0.35151 -0.05299,-0.8256 0.100835,-1.15247 0.108322,-0.23024 0.385632,-0.20754 0.597199,-0.20949 v -0.25941 h -2.03048 m 2.411383,5.05871 v 0.19456 h 1.649895 c -0.09867,-0.30352 -0.553924,-0.22765 -0.528159,-0.58499 0.07857,-1.09087 0.738135,-1.1661 1.606932,-1.1661 0.249451,0 0.653357,-0.0765 0.856675,0.10372 0.510198,0.45334 0.673284,1.35094 -0.09519,1.45277 v 0.19455 h 1.967176 c -0.08313,-0.29055 -0.455623,-0.3567 -0.604113,-0.64856 -0.569846,-1.12004 -0.992475,-2.34256 -1.480015,-3.50217 -0.09183,-0.21857 -0.381,-1.29646 -0.7356,-1.04482 -0.240947,0.17121 -0.373066,0.77437 -0.489766,1.04482 -0.391658,0.90862 -0.775828,1.81984 -1.177769,2.72391 -0.223687,0.50329 -0.360756,1.14795 -0.970072,1.23226 m 7.614888,-5.05872 v 0.25942 c 0.245583,0.002 0.547002,-0.007 0.65996,0.26655 0.158641,0.3859 0.101528,0.94429 0.101528,1.35484 v 2.59421 c 0,0.42545 0.06473,1.03703 -0.138335,1.42422 -0.201163,0.38329 -0.541294,0.27564 -0.876982,0.19717 v 0.64855 c 2.180394,-0.0473 1.649893,-3.20515 1.649893,-4.66958 0,-0.69785 -0.233524,-1.77185 0.698029,-1.81596 v -0.25941 h -2.094092 m 2.411384,0 v 0.25941 c 1.076873,0.01 0.69803,1.66225 0.69803,2.46451 0,0.56748 -0.08693,1.29191 0.170704,1.81595 0.407394,0.82755 1.470308,0.79707 2.24068,0.77762 1.874533,-0.048 1.713351,-2.04749 1.713351,-3.43669 0,-0.67579 -0.201797,-1.61036 0.698031,-1.62139 v -0.25932 h -1.776804 v 0.25941 c 0.915689,0.0227 0.698029,1.00137 0.698029,1.68624 0,1.31916 0.165624,2.93082 -1.586433,2.91849 -1.680356,-0.0123 -1.459522,-1.67197 -1.459522,-2.91849 0,-0.7348 -0.196085,-1.68299 0.761489,-1.68624 v -0.25941 h -2.157552 m 5.838082,0 v 0.25941 c 0.246849,0.003 0.536215,-0.006 0.651073,0.26656 0.128184,0.30482 0.04696,0.76984 0.04696,1.09541 0,0.86906 0.272231,2.30301 -0.03808,3.11045 -0.111684,0.28862 -0.395339,0.3204 -0.659956,0.32688 v 0.19456 h 2.157551 v -0.19456 c -1.222825,-0.0265 -0.761488,-2.4671 -0.761488,-3.37248 0,-0.37421 -0.138972,-1.10578 0.262078,-1.30683 1.462694,-0.73222 2.363155,1.61101 0.689783,2.02672 -0.224005,0.0558 -0.412474,0.0467 -0.634574,-0.006 0.10407,0.69137 0.999453,1.50594 1.40558,2.07538 0.161818,0.22699 0.338229,0.56683 0.580637,0.71146 0.257003,0.15306 0.70755,0.0668 0.996281,0.0668 l -0.578204,-0.71342 -1.389083,-1.94565 c 0.962015,-0.22764 2.088384,-1.70376 0.824313,-2.40484 -0.888405,-0.49225 -2.564949,-0.18679 -3.552982,-0.18938 m 4.949679,0 v 0.25943 c 0.246849,0.003 0.536215,-0.006 0.651074,0.26655 0.128184,0.30482 0.04696,0.76983 0.04696,1.09541 0,0.86322 0.275405,2.31209 -0.04696,3.10981 -0.112955,0.27887 -0.391533,0.3152 -0.651074,0.32752 v 0.19457 h 2.094095 v -0.19457 c -0.262714,-0.0123 -0.52289,-0.0467 -0.632671,-0.32752 -0.317287,-0.81459 -0.06536,-2.17265 -0.06536,-3.04496 0,-0.35346 -0.07933,-0.83145 0.05647,-1.1635 0.115491,-0.28147 0.387724,-0.26267 0.641554,-0.26331 V 101.66 h -2.094083 m 2.474839,0 v 0.25943 c 0.708819,0.10052 0.690417,0.74195 0.698032,1.36196 0.01079,0.96698 0.163085,2.16746 -0.08377,3.10656 -0.0533,0.203 -0.235427,0.32104 -0.296981,0.52534 1.158098,0 2.571295,0.23801 3.617074,-0.36838 1.434772,-0.83144 1.972891,-3.38416 0.444201,-4.42443 -1.165078,-0.79253 -3.05357,-0.45983 -4.378562,-0.46048 m 5.774626,0 v 0.25943 c 0.277944,0.003 0.519716,0.0253 0.63267,0.32557 0.311577,0.82626 0.06536,2.16486 0.06536,3.04691 0,0.35993 0.05712,0.82236 -0.09899,1.15895 -0.111686,0.23996 -0.370591,0.25682 -0.599038,0.26785 v 0.19457 h 2.094094 v -0.19457 c -0.264618,-0.006 -0.54827,-0.0383 -0.659956,-0.32687 -0.11232,-0.29314 -0.03808,-0.72443 -0.03808,-1.0351 v -2.14021 c 0,-0.30871 -0.09391,-0.81847 0.06536,-1.09282 0.132625,-0.22894 0.408031,-0.20364 0.632669,-0.20429 v -0.25968 h -2.094121 m 7.678348,5.05871 v 0.19457 h 1.649895 c -0.09836,-0.30349 -0.553985,-0.22761 -0.527967,-0.58496 0.07806,-1.08826 0.743086,-1.1661 1.606743,-1.1661 0.249387,0 0.653611,-0.0765 0.856674,0.10372 0.510197,0.45334 0.673283,1.35094 -0.09519,1.45276 v 0.19457 h 1.96718 c -0.08313,-0.29055 -0.455624,-0.3567 -0.604115,-0.64856 -0.567943,-1.1168 -0.993742,-2.34516 -1.479826,-3.50218 -0.08948,-0.21143 -0.387091,-1.30099 -0.732933,-1.04482 -0.254465,0.18873 -0.387091,0.81977 -0.50893,1.10968 -0.374398,0.89045 -0.778622,1.7686 -1.153655,2.65906 -0.211313,0.50263 -0.382014,1.14988 -0.977879,1.23225 m 15.927762,-5.05867 c -0.352825,1.31786 -1.059748,2.65777 -1.633392,3.89132 -0.234796,0.50458 -0.357263,1.06817 -0.968361,1.16739 v 0.19457 h 1.713344 c -0.100246,-0.2912 -0.515908,-0.21662 -0.562865,-0.52273 -0.02597,-0.16928 0.08504,-0.3632 0.144047,-0.51495 0.400424,-1.02342 1.451275,-0.71341 2.386,-0.71341 l 0.444205,1.49167 -0.634578,0.0649 v 0.19457 h 1.967182 c -0.103453,-0.30092 -0.46324,-0.4008 -0.614271,-0.7134 -0.525425,-1.09217 -0.949953,-2.25243 -1.416369,-3.37248 -0.179584,-0.43129 -0.297613,-1.12589 -0.824942,-1.1674 m -63.584331,0.27888 c 2.745868,-0.4047 3.31597,4.38486 0.698028,4.74092 -2.555113,0.34698 -3.277447,-4.36087 -0.698028,-4.74092 m 36.170728,0.0642 c 0.715799,-0.0882 1.644181,0.0876 2.10742,0.70044 0.979148,1.29451 0.359803,3.68702 -1.345932,3.87446 -0.288096,0.0311 -0.992474,0.12776 -1.231074,-0.0655 -0.161816,-0.13102 -0.09519,-0.4527 -0.11232,-0.63688 -0.06218,-0.66996 -0.05267,-1.33667 -0.05267,-2.01052 0,-0.70822 -0.232889,-1.75563 0.634574,-1.86199 m -53.938805,0.69461 0.824948,2.14022 h -1.776806 l 0.951858,-2.14022 m 31.284509,0 0.888403,2.14022 h -1.776808 c 0.178761,-0.66801 0.479296,-1.58766 0.888405,-2.14022 m 36.741844,0 0.888405,2.14022 h -1.776808 l 0.888404,-2.14022 m 13.389511,0 0.824952,2.14022 H 96.21646 c 0.213226,-0.64077 0.489889,-1.65381 0.951857,-2.14022 m -3.867093,3.48661 c -0.484813,0.19068 -0.214483,0.97153 0.306506,0.75493 0.47022,-0.19588 0.177045,-0.94495 -0.306506,-0.75493 m 7.613626,0 c -0.5324,0.19716 -0.21448,0.97219 0.30777,0.75493 0.46769,-0.19522 0.1523,-0.92484 -0.30777,-0.75493 m -59.208311,8.9656 0.19037,0.5837 h 0.190375 c 0.28245,-0.29509 0.763393,-0.19457 1.14223,-0.19457 V 119.43 l -0.317281,0.0649 v 0.12971 l 1.269148,0.0649 -0.302819,-0.58499 -0.01446,-3.56576 c 0.34159,0 0.936755,-0.1297 1.142232,0.19457 0.292855,-0.0967 0.373573,-0.35411 0.317288,-0.64855 -1.165205,0.37163 -2.444634,-0.0435 -3.617072,0.0649 m 8.122546,2.59421 c -0.130086,0.55906 -0.481006,1.06816 -0.951859,1.38725 -0.308404,0.20884 -0.8167,0.19911 -0.888405,0.62327 1.356718,-0.26916 2.518627,-1.07595 2.590966,-2.61303 0.0571,-1.21539 -1.125097,-2.50406 -2.337136,-1.82567 -1.806886,1.0111 -0.09138,3.83359 1.586434,2.42818 m 2.474841,-2.55984 c -1.317374,0.32104 -1.522976,2.45672 -1.136523,3.53267 0.23987,0.66606 0.864923,1.16155 1.580724,1.00396 1.351643,-0.29769 1.581362,-2.34777 1.221557,-3.46846 -0.234794,-0.73157 -0.890944,-1.25689 -1.665758,-1.06817 m 3.553614,0 c -1.310395,0.30936 -1.533132,2.39057 -1.161268,3.46781 0.241773,0.70109 0.842714,1.2368 1.605469,1.05845 1.350377,-0.3165 1.565498,-2.32636 1.220287,-3.45809 -0.225271,-0.7374 -0.898555,-1.24911 -1.664488,-1.06817 m 3.299787,2.10585 v 0.0649 c -0.244946,0.11869 -0.494335,0.26396 -0.684705,0.46566 -1.593416,1.6966 2.700748,2.9788 2.648713,0.63688 -0.0057,-0.23803 -0.07298,-0.45722 -0.213851,-0.64855 -0.197988,-0.26851 -0.466413,-0.46113 -0.734838,-0.64856 1.186653,-0.62066 0.818601,-2.05332 -0.507659,-2.00792 -1.272323,0.0441 -1.712081,1.55134 -0.50766,2.13763 m 2.347925,0.84312 c 0.443567,0 1.168252,-0.14333 1.576916,0.0389 0.549542,0.24516 0.11359,1.20177 -0.24431,1.38791 v 0.0649 c 0.345843,0.10437 1.179039,0.21272 1.396063,-0.12971 -0.534311,-0.1965 -0.380744,-0.88461 -0.380744,-1.36196 h 0.761489 v -0.51885 c -1.077508,0.25877 -0.764662,-0.9417 -0.761489,-1.75109 6.34e-4,-0.16149 0.0844,-0.52662 -0.05267,-0.6453 -0.249388,-0.21662 -0.57556,0.36643 -0.68534,0.5156 -0.498141,0.67902 -1.41764,1.57078 -1.609915,2.39964 m 4.505477,-0.84312 v 0.0649 c -0.244946,0.11868 -0.494334,0.26396 -0.684707,0.46566 -1.597857,1.70115 2.700748,2.97556 2.648713,0.63687 -0.0057,-0.23802 -0.07297,-0.45723 -0.213852,-0.64855 -0.197987,-0.2685 -0.466411,-0.46112 -0.734836,-0.64856 1.09464,-0.58045 0.900461,-1.96381 -0.380744,-2.00791 -1.31103,-0.0447 -1.925298,1.50983 -0.634574,2.13763 m 3.553614,0 v 0.0649 c -1.446829,0.63817 -1.175867,2.38797 0.444202,2.38797 1.554707,0 2.082039,-1.86394 0.571117,-2.51768 0.204333,-0.18225 0.437221,-0.35087 0.590153,-0.5837 0.986764,-1.50594 -2.361884,-2.22259 -2.361884,-0.38913 0,0.20883 0.05901,0.40924 0.175776,0.5811 0.147222,0.21597 0.353459,0.34633 0.580636,0.45658 m 2.601754,-1.03768 c 0.458797,-0.80421 1.694314,-1.09476 1.818691,0.12971 0.0806,0.78993 -0.555253,1.61944 -1.057837,2.14022 -0.191006,0.19716 -1.0058,0.71536 -0.956303,1.01952 0.04316,0.26267 0.894115,0.14788 1.083853,0.14788 0.866829,0 1.915145,0.31519 1.96718,-0.84313 l -2.157549,0.25944 c 0.622519,-0.63624 1.448735,-1.31268 1.719062,-2.20508 0.259542,-0.85481 -0.243676,-1.71414 -1.147945,-1.74851 -0.444201,-0.0168 -0.881423,0.14203 -1.203152,0.45789 -0.204333,0.20104 -0.430875,0.51689 -0.06599,0.64206 m 3.045958,1.8808 c 0.409299,0 1.283109,-0.16992 1.629585,0.0668 0.421357,0.28732 0.136433,1.20373 -0.29698,1.29516 0.20116,0.31781 1.194902,0.31781 1.396063,0 -0.541291,-0.19456 -0.380745,-0.87878 -0.380745,-1.36195 h 0.76149 v -0.51885 c -1.077508,0.25877 -0.764663,-0.9417 -0.76149,-1.75109 5.76e-4,-0.16149 0.0844,-0.52662 -0.05267,-0.6453 -0.249387,-0.21663 -0.575559,0.36642 -0.685339,0.51559 -0.498776,0.68033 -1.417005,1.56885 -1.609915,2.39965 m -39.914733,-2.91846 c 0.08288,0.2899 0.420153,0.32038 0.514135,0.64855 0.231299,0.80874 0.05698,1.88405 0.05698,2.72392 0,0.37746 0.0474,0.71017 -0.317284,0.90797 v 0.12972 h 0.951859 v -0.12972 c -0.373573,-0.23801 -0.317287,-0.56229 -0.317287,-0.97282 v -2.26995 l 2.218532,2.39964 1.081255,1.03768 c 0.26011,-0.89954 0.06346,-2.11038 0.06346,-3.0482 0,-0.44944 -0.12019,-0.98126 0.317288,-1.23224 v -0.12971 l -0.951864,-0.0649 c 0.329216,1.03963 0.253831,2.11558 0.253831,3.24277 l -2.024987,-2.20508 -0.957511,-0.97089 -0.888405,-0.0668 m 4.949681,0.19457 c 0.369064,0.19003 0.317285,0.53181 0.317285,0.90797 v 2.20508 c 0,0.39951 0.06315,0.75492 -0.317285,0.97283 v 0.12971 h 1.269148 v -0.1297 c -0.380432,-0.2179 -0.317294,-0.57332 -0.317294,-0.97282 v -2.20508 c 0,-0.38524 -0.04568,-0.69979 0.317289,-0.90798 v -0.12971 c -0.332387,-0.10051 -1.059292,-0.20105 -1.269145,0.12971 m 39.978172,-0.19456 -0.126916,0.84312 0.06346,0.0649 h 0.126915 c 0.483544,-0.56165 1.609915,-0.32428 2.284467,-0.32428 -0.644093,1.12718 -1.481731,2.6221 -1.776808,3.89131 0.573655,0.0558 0.727856,-0.51171 0.92521,-0.97282 0.48291,-1.13173 1.215209,-2.25178 1.549629,-3.43734 -0.897922,-0.27109 -2.109324,-0.0649 -3.045955,-0.0649 m -31.601794,0.28406 c 1.071163,-0.17057 1.863111,2.04943 0.571116,2.2213 -1.034355,0.13749 -1.73429,-2.03516 -0.571116,-2.2213 m 3.680529,0.004 c 0.453088,-0.11608 0.793218,0.30417 0.946151,0.68423 0.29,0.72184 0.620616,2.99437 -0.50195,3.20839 -0.424527,0.081 -0.737373,-0.4034 -0.871902,-0.7439 -0.280484,-0.70627 -0.618711,-2.88086 0.427701,-3.14872 m 3.553619,0 c 0.491794,-0.12581 0.798294,0.34828 0.947417,0.74908 0.264616,0.71017 0.59206,2.93277 -0.503215,3.14354 -0.435321,0.0837 -0.749432,-0.39238 -0.883965,-0.7439 -0.274768,-0.716 -0.623151,-2.87697 0.439763,-3.14872 m 3.553613,-0.007 c 0.897923,-0.16538 1.32055,1.32759 0.443568,1.41839 -0.71707,0.074 -1.46777,-1.22902 -0.443568,-1.41839 m 6.853402,0 c 0.897288,-0.16474 1.291358,1.33083 0.443567,1.41839 -0.716434,0.074 -1.474116,-1.22836 -0.443567,-1.41839 m 3.553614,-4.3e-4 c 0.853503,-0.14593 1.304685,1.26402 0.444202,1.41319 -0.710088,0.12259 -1.501401,-1.23225 -0.444202,-1.41319 m -6.536113,0.62714 c 0,0.32428 0.163086,1.34057 -0.101528,1.55458 -0.225908,0.18289 -0.827483,0.0668 -1.104159,0.0668 0.258271,-0.55581 0.727222,-1.24652 1.205691,-1.62138 m 13.706802,0 c 0,0.32428 0.163085,1.34056 -0.101528,1.55457 -0.22591,0.1829 -0.827486,0.0668 -1.10416,0.0668 l 1.078776,-1.62138 h 0.126915 m 1.688602,1.16934 c -0.42326,0.34828 0.899192,0.50911 1.128272,0.32039 0.423263,-0.34828 -0.89919,-0.50912 -1.128272,-0.32039 m -19.20285,0.29826 c 1.018491,-0.0967 1.597858,1.74072 0.317287,1.83216 -1.047682,0.0752 -1.442388,-1.72514 -0.317287,-1.83216 m 6.853402,0 c 1.011512,-0.096 1.583895,1.74137 0.317287,1.83216 -1.047683,0.0752 -1.442388,-1.72514 -0.317287,-1.83216 m 3.490157,-4.4e-4 c 0.92521,-0.19002 1.679083,1.52087 0.507659,1.80622 -1.078776,0.26202 -1.64672,-1.57273 -0.507659,-1.80622 z"
       id="path166"
       inkscape:highlight-color="#000000"
       inkscape:label="path166" /></g></svg>
