<?xml version="1.0" standalone="no"?><!DOCTYPE svg PUBLIC "-//W3C//DTD SVG 20010904//EN" "http://www.w3.org/TR/2001/REC-SVG-20010904/DTD/svg10.dtd"><svg version="1.0" xmlns="http://www.w3.org/2000/svg" width="700.000000pt" height="700.000000pt" viewBox="0 0 700.000000 700.000000" preserveAspectRatio="xMidYMid meet"><metadata>Created by potrace 1.14, written by Peter Selinger 2001-2017</metadata><g transform="translate(0.000000,700.000000) scale(0.100000,-0.100000)"fill="#000000" stroke="none"><path d="M3391 6804 c-30 -8 -76 -26 -102 -41 -59 -31 -148 -123 -178 -181-52 -101 -51 -73 -51 -1404 l0 -1238 -1104 0 c-699 0 -1123 -4 -1156 -10 -67-13 -150 -50 -202 -92 -40 -32 -471 -596 -515 -675 -25 -43 -31 -103 -18 -1628 -40 461 -647 523 -703 23 -20 60 -47 84 -59 97 -50 68 -49 1266 -49 l1122 00 -1095 0 -1095 440 0 440 0 0 2185 0 2184 1133 3 1132 3 60 23 c125 47 14871 405 412 130 174 245 330 254 347 21 42 21 144 0 186 -9 17 -124 173 -255347 -243 322 -275 356 -374 402 l-50 23 -1152 3 -1153 2 0 148 c0 224 -26 307-126 412 -113 119 -271 165 -423 124z m2898 -1334 l163 -220 -163 -220 -164-219 -1312 -1 -1313 0 0 440 0 440 1313 0 1312 -1 164 -219z m-2789 -2410 l0-440 -1310 0 -1310 0 -165 220 c-111 148 -163 225 -158 234 4 7 78 106 163220 l155 206 1312 0 1313 0 0 -440z"/></g></svg>